<svg xmlns="http://www.w3.org/2000/svg" width="1em" height="1em" viewBox="0 0 24 24"><g fill="none" stroke="currentColor" stroke-linecap="round" stroke-linejoin="round" stroke-width="1.5"><path d="M9.542 4.652L6.983 5.924C3.661 7.576 2 8.402 2 9.75s1.661 2.174 4.983 3.826l2.559 1.272c1.209.601 1.814.902 2.458.902s1.249-.3 2.458-.902l2.559-1.272C20.339 11.924 22 11.098 22 9.75s-1.661-2.174-4.983-3.826l-2.559-1.272C13.25 4.051 12.644 3.75 12 3.75s-1.249.3-2.458.902"/><path d="M6 13.25v3.807c0 .092 0 .137.002.18c.029.706.42 1.347 1.03 1.689a22 22 0 0 0 .813.407a9.88 9.88 0 0 0 8.31 0c.16-.074.325-.157.656-.325c.08-.041.12-.061.158-.082c.61-.342 1-.983 1.03-1.69l.001-.179V13.25m4-3.5v6.5"/></g></svg>