<svg xmlns="http://www.w3.org/2000/svg" width="1em" height="1em" viewBox="0 0 24 24"><g fill="none" stroke="currentColor" stroke-linejoin="round" stroke-width="1.5"><path stroke-linecap="round" d="M14.244 3.006c-.443.404-1.623 1.995-2.253 1.994c-.63 0-1.805-1.595-2.247-2m4.5 17.994c-.443-.404-1.623-1.995-2.253-1.994c-.63 0-1.805 1.596-2.247 2M20.908 9.452c-.571-.182-2.539-.408-2.853-.954c-.315-.547.479-2.361.608-2.946M5.33 18.446c.128-.586.916-2.403.6-2.948c-.316-.546-2.284-.766-2.855-.946m.001-5.1c.57-.182 2.539-.408 2.853-.954s-.479-2.361-.608-2.946m13.332 12.894c-.128-.586-.916-2.403-.6-2.948c.316-.546 2.284-.766 2.855-.946m-5.45-4.572l2.536-1.48m-6-.48V5m6 10.5l-2.536-1.48M5.994 15.5L8.566 14m3.428 5v-3.021M8.566 10L5.994 8.5"/><path d="M15.496 11.731c0-.845 0-1.267-.202-1.615c-.2-.349-.567-.56-1.299-.982l-.463-.268c-.732-.423-1.098-.634-1.5-.634s-.768.211-1.5.634l-.464.268c-.732.422-1.098.634-1.3.982c-.2.348-.2.77-.2 1.616v.536c0 .845 0 1.268.2 1.616c.202.348.568.56 1.3.982l.464.268c.732.422 1.098.634 1.5.634s.768-.212 1.5-.634l.464-.268c.732-.423 1.098-.634 1.299-.982s.2-.771.2-1.617z"/></g></svg>